<svg xmlns="http://www.w3.org/2000/svg" width="946" height="932" viewBox="0 0 946 932" version="1.1"><path d="M 407.691 186.177 C 407.157 188.381, 406.222 199.880, 404.007 231.500 C 400.424 282.650, 399.825 293.169, 400.375 295.360 C 401.004 297.866, 407.558 301.440, 433.949 313.670 C 442.295 317.538, 451.069 321.869, 456.758 324.931 C 457.716 325.446, 463.900 328.425, 470.500 331.550 C 491.488 341.487, 507.384 349.357, 511.230 351.714 C 513.282 352.971, 515.644 354, 516.480 354 C 517.316 354, 518 354.398, 518 354.883 C 518 355.369, 518.993 356.026, 520.206 356.344 C 521.420 356.661, 522.094 357.239, 521.705 357.629 C 521.316 358.018, 519.760 357.763, 518.248 357.063 C 512.202 354.261, 509.325 353.088, 505.500 351.863 C 503.300 351.159, 501.050 350.280, 500.500 349.909 C 499.950 349.539, 493.724 346.917, 486.664 344.082 C 479.604 341.248, 471.954 338.066, 469.664 337.011 C 467.374 335.956, 463.025 334.137, 460 332.969 C 456.975 331.800, 453.150 330.232, 451.500 329.484 C 449.850 328.737, 445.575 326.949, 442 325.512 C 438.425 324.074, 434.150 322.281, 432.500 321.526 C 424.369 317.806, 417.950 315.061, 412.500 312.972 C 409.200 311.708, 406.050 310.359, 405.500 309.974 C 404.950 309.590, 403.309 308.992, 401.854 308.645 C 400.399 308.298, 395.899 306.512, 391.854 304.676 C 387.809 302.841, 383.150 300.756, 381.500 300.045 C 374.562 297.052, 351.872 287.540, 344 284.323 C 339.325 282.413, 334.150 280.278, 332.500 279.578 C 330.850 278.879, 322.750 275.464, 314.500 271.991 C 306.250 268.518, 299.072 265.299, 298.550 264.838 C 298.027 264.377, 297.028 264, 296.330 264 C 295.631 264, 292.458 262.849, 289.280 261.443 C 286.101 260.037, 282.600 258.518, 281.500 258.068 C 275.900 255.776, 273.865 255, 273.453 255 C 272.216 255, 273.323 257.550, 276.250 261.445 C 278.038 263.824, 280.175 266.793, 281 268.043 C 281.825 269.293, 283.661 271.707, 285.079 273.408 C 286.497 275.109, 291.221 281.225, 295.577 287 C 299.932 292.775, 304.249 298.400, 305.171 299.500 C 306.092 300.600, 308.654 303.975, 310.863 307 C 313.072 310.025, 315.495 313.175, 316.247 314 C 316.999 314.825, 319.364 317.975, 321.503 321 C 323.642 324.025, 326.901 328.300, 328.746 330.500 C 330.591 332.700, 332.417 334.950, 332.804 335.500 C 341.404 347.724, 350 358.081, 352.216 358.886 C 353.710 359.428, 358.210 360.139, 362.216 360.465 C 366.222 360.791, 372.650 361.471, 376.500 361.976 C 380.350 362.481, 389.350 363.391, 396.500 363.998 C 403.650 364.605, 413.227 365.548, 417.783 366.093 C 422.339 366.638, 430.889 367.525, 436.783 368.065 C 456.286 369.852, 466.356 370.915, 479.500 372.575 C 486.650 373.479, 495.612 374.433, 499.416 374.697 C 503.219 374.961, 505.784 375.515, 505.116 375.929 C 504.447 376.342, 485.513 376.503, 463.042 376.287 C 440.432 376.070, 421.943 376.283, 421.645 376.765 C 420.895 377.979, 424.973 382.042, 460 414.965 C 467.146 421.682, 468.403 422.319, 472.201 421.144 C 474.015 420.583, 479.349 418.921, 484.053 417.450 C 495.889 413.752, 498.597 414.629, 488.488 418.887 C 484.094 420.738, 479.150 422.824, 477.500 423.522 C 475.850 424.220, 472.025 425.793, 469 427.017 C 465.975 428.240, 461.700 430.021, 459.500 430.973 C 457.300 431.926, 452.411 433.784, 448.635 435.103 C 444.859 436.421, 441.535 438.095, 441.250 438.823 C 440.749 440.097, 444.023 463.203, 446.163 473.500 C 446.735 476.250, 447.610 481.650, 448.109 485.500 C 449.676 497.610, 450.857 505.301, 452.099 511.500 C 452.911 515.549, 453.426 534.555, 453.685 569.939 C 453.934 603.945, 454.431 622.815, 455.101 623.621 C 456.143 624.877, 460.679 623.821, 465.618 621.173 C 468.411 619.675, 476.890 616, 477.553 616 C 477.869 616, 480.462 614.935, 483.314 613.633 C 486.166 612.332, 490.750 610.259, 493.500 609.028 C 496.250 607.796, 499.964 606.110, 501.752 605.279 C 504.982 603.780, 505.132 603.832, 523.252 612.754 C 533.289 617.695, 542.513 622.052, 543.750 622.436 C 547.264 623.527, 546.909 621.534, 541.448 609.500 C 540.200 606.750, 537.293 600, 534.989 594.500 C 532.685 589, 530.228 583.150, 529.531 581.500 C 528.833 579.850, 525.905 572.875, 523.023 566 C 520.140 559.125, 516.207 549.900, 514.282 545.500 C 512.356 541.100, 510.215 536.150, 509.524 534.500 C 506.504 527.296, 501.724 516.358, 500.899 514.764 C 500.404 513.809, 500 512.604, 500 512.087 C 500 511.569, 498.425 507.736, 496.500 503.569 C 494.575 499.401, 493 495.599, 493 495.118 C 493 494.638, 492.434 493.775, 491.742 493.201 C 490.809 492.426, 488.874 493.666, 484.242 498.006 C 475.496 506.200, 476.186 503.067, 485.739 491.211 C 488.082 488.302, 490 485.598, 490 485.201 C 490 484.804, 491.030 483.359, 492.290 481.990 C 493.549 480.620, 497.396 475.745, 500.839 471.155 C 504.282 466.565, 507.520 462.290, 508.034 461.655 C 511.686 457.147, 514.463 453.548, 519.342 447 C 522.416 442.875, 526.407 437.739, 528.211 435.586 C 530.016 433.433, 534.331 427.863, 537.802 423.209 C 541.272 418.554, 544.649 414.178, 545.306 413.484 C 545.962 412.790, 547.400 410.963, 548.500 409.425 C 549.600 407.887, 551.413 405.474, 552.528 404.064 C 553.643 402.654, 555.789 399.664, 557.297 397.419 C 558.804 395.174, 561.267 392.179, 562.769 390.763 C 565.662 388.036, 572.392 384, 574.047 384 C 574.589 384, 581.543 380.850, 589.500 377 C 597.457 373.150, 604.257 370, 604.611 370 C 604.965 370, 609.806 367.688, 615.368 364.862 C 626.863 359.021, 629.648 358.700, 645.588 361.381 C 650.490 362.205, 660.575 363.385, 668 364.003 C 675.425 364.620, 684.237 365.547, 687.582 366.063 C 694.085 367.065, 699.538 367.209, 697 366.312 C 696.175 366.020, 692.686 364.481, 689.247 362.891 C 685.808 361.301, 682.540 360, 681.984 360 C 681.428 360, 680.191 359.592, 679.236 359.092 C 678.281 358.593, 675.250 357.487, 672.500 356.635 C 665.138 354.353, 647.769 348.068, 645.764 346.960 C 644.809 346.432, 643.211 346, 642.214 346 C 641.216 346, 639.972 345.611, 639.450 345.136 C 638.927 344.661, 635.639 343.436, 632.141 342.414 C 626.400 340.737, 625.182 339.874, 619.596 333.528 C 616.193 329.663, 611.411 324.025, 608.968 321 C 603.093 313.723, 603.253 313.814, 597.500 314.505 C 594.750 314.835, 588 315.526, 582.500 316.041 C 577 316.556, 568.225 317.471, 563 318.076 C 557.775 318.680, 549.905 319.472, 545.510 319.837 C 539.185 320.362, 537.454 320.847, 537.203 322.164 C 537.029 323.080, 538.530 327.580, 540.539 332.164 C 542.548 336.749, 545.235 342.975, 546.510 346 C 547.785 349.025, 550.016 354.150, 551.467 357.389 C 554.068 363.194, 555.715 369, 554.761 369 C 554.492 369, 552.977 367.087, 551.394 364.750 C 549.812 362.413, 547.769 359.810, 546.854 358.966 C 545.940 358.122, 542.336 353.688, 538.846 349.113 C 528.845 336.002, 527.371 334.153, 523.573 329.949 C 521.608 327.774, 520 325.631, 520 325.187 C 520 324.743, 518.746 323.057, 517.213 321.440 C 515.679 319.823, 511.978 315.350, 508.986 311.500 C 505.995 307.650, 503.312 304.275, 503.024 304 C 502.736 303.725, 499.586 299.675, 496.025 295 C 490.107 287.232, 483.324 278.591, 479.144 273.497 C 478.240 272.395, 475.947 269.470, 474.050 266.997 C 472.152 264.524, 467.202 258.262, 463.050 253.083 C 458.897 247.903, 452.800 240.185, 449.500 235.932 C 446.200 231.678, 442.150 226.466, 440.500 224.349 C 434.547 216.713, 428.923 209.480, 428.176 208.500 C 426.742 206.617, 409.742 185.501, 408.997 184.677 C 408.588 184.224, 408 184.899, 407.691 186.177 M 229.684 358.649 C 228.573 359.760, 228.871 399.802, 229.996 400.497 C 231.865 401.653, 274.993 401.725, 276.565 400.576 C 277.802 399.672, 277.999 396.149, 277.771 378.998 L 277.500 358.500 253.934 358.232 C 240.973 358.085, 230.061 358.273, 229.684 358.649 M 311.681 372.652 C 311.307 373.027, 311 384.685, 311 398.560 C 311 420.640, 311.197 423.862, 312.582 424.393 C 314.961 425.306, 368.305 425.093, 369.768 424.165 C 370.748 423.542, 370.975 417.608, 370.768 397.930 L 370.500 372.500 341.431 372.235 C 325.444 372.090, 312.056 372.277, 311.681 372.652 M 383.657 417.172 C 382.782 417.662, 382.510 422.478, 382.657 434.904 C 382.769 444.287, 383.143 452.422, 383.489 452.982 C 383.882 453.617, 391.572 454, 403.952 454 C 421.116 454, 423.868 453.787, 424.393 452.418 C 425.474 449.600, 425.079 418.167, 423.953 417.471 C 422.543 416.599, 385.177 416.322, 383.657 417.172 M 272.414 420.140 C 271.182 422.132, 271.985 444.368, 273.319 445.232 C 275.433 446.602, 299.777 445.974, 300.985 444.519 C 301.663 443.701, 301.960 438.800, 301.783 431.358 L 301.500 419.500 287.326 419.223 C 277.162 419.024, 272.943 419.284, 272.414 420.140 M 316.070 444.415 C 314.698 446.068, 314.944 492.283, 316.333 493.669 C 317.350 494.684, 368.795 494.789, 371.250 493.781 C 372.849 493.125, 373 490.959, 373 468.638 C 373 447.289, 372.801 444.138, 371.418 443.607 C 370.548 443.273, 358.003 443, 343.541 443 C 322.088 443, 317.029 443.261, 316.070 444.415 M 252.353 468.047 C 251.409 468.991, 251.434 502.768, 252.379 503.713 C 253.129 504.462, 291.933 504.401, 292.687 503.649 C 293.134 503.203, 293.642 495.512, 293.816 486.556 C 294.087 472.534, 293.904 470.047, 292.494 468.637 C 291.095 467.238, 288.139 467, 272.129 467 C 260.410 467, 253.008 467.392, 252.353 468.047 M 388.694 478.640 C 388.312 479.021, 388 484.418, 388 490.631 C 388 500.778, 388.197 502.035, 389.934 502.965 C 392.991 504.601, 414.503 504.304, 415.911 502.607 C 416.677 501.685, 416.972 497.374, 416.784 489.857 L 416.500 478.500 402.944 478.223 C 395.488 478.071, 389.075 478.258, 388.694 478.640 M 286.447 516.277 C 286.178 516.979, 286.079 526.763, 286.229 538.018 L 286.500 558.482 289.402 558.991 C 290.999 559.271, 302.249 559.275, 314.402 559 L 336.500 558.500 336.784 539 C 336.940 528.275, 336.819 518.487, 336.515 517.250 L 335.962 515 311.450 515 C 292.486 515, 286.826 515.289, 286.447 516.277 M 248.500 531.882 L 244.500 532.500 243.876 538 C 243.168 544.245, 243.840 551.783, 245.177 552.610 C 246.609 553.494, 266.311 553.089, 267.244 552.156 C 268.185 551.215, 268.820 533.487, 267.945 532.611 C 267.065 531.732, 252.911 531.201, 248.500 531.882 M 236.190 667.026 C 231.965 669.602, 229.632 675.038, 230.280 680.796 C 231.316 689.983, 240.407 694.402, 249.356 690.070 C 254.856 687.407, 256.528 683.738, 256.111 675.249 C 256.050 674.011, 254.146 671.198, 251.879 668.999 C 248.420 665.642, 247.096 665.001, 243.629 665.004 C 241.254 665.006, 238.094 665.865, 236.190 667.026 M 376.017 668.763 C 372.099 672.240, 371.770 672.918, 371.698 677.675 C 371.553 687.308, 378.517 693.245, 387.909 691.493 C 391.603 690.804, 393.239 689.490, 396.258 684.785 C 401.585 676.483, 394.312 665, 383.727 665 C 381.133 665, 379.187 665.950, 376.017 668.763 M 581.864 668.273 C 576.992 671.989, 575.511 676.240, 577.048 682.093 C 579.386 690.989, 587.569 694.323, 596.480 690.010 C 608.176 684.348, 603.036 665.030, 589.828 665.007 C 587.213 665.002, 584.919 665.943, 581.864 668.273 M 773.573 672.882 C 773.252 673.402, 773.062 680.396, 773.152 688.423 C 773.241 696.451, 773.033 703.300, 772.688 703.645 C 772.344 703.989, 770.811 703.430, 769.281 702.403 C 762.823 698.065, 753.321 695.307, 748.370 696.332 C 746.791 696.659, 743.925 697.228, 742 697.597 C 740.075 697.966, 737.306 699.108, 735.846 700.134 C 734.386 701.160, 732.856 702, 732.447 702 C 731.288 702, 725.578 708.170, 722.671 712.563 C 714.457 724.974, 714.948 746.659, 723.728 759.329 C 734.214 774.461, 753.747 778.566, 766.914 768.406 C 769.342 766.533, 771.677 765, 772.104 765 C 772.530 765, 773.019 766.688, 773.190 768.750 L 773.500 772.500 785 772.500 L 796.500 772.500 796.500 722.500 L 796.500 672.500 785.329 672.218 C 779.054 672.060, 773.901 672.350, 773.573 672.882 M 299.266 678.444 C 286.370 682.965, 276.970 691.139, 271.428 702.649 C 257.802 730.953, 270.457 761.552, 300 771.730 C 302.990 772.760, 308.192 773.284, 315.500 773.291 C 325.477 773.301, 327.058 773.041, 332.500 770.494 C 345.630 764.348, 356.886 752.426, 359.661 741.725 C 360.398 738.886, 361 733.078, 361 728.817 C 361 722.448, 360.689 720.911, 359.250 720.172 C 357.380 719.213, 316.387 718.760, 311.711 719.647 L 308.922 720.176 309.211 728.338 L 309.500 736.500 321.500 737 C 333.005 737.479, 333.513 737.593, 333.819 739.748 C 334.261 742.860, 330.587 747.660, 325.956 750.023 C 318.093 754.034, 303.159 751.738, 297.580 745.659 C 293.849 741.594, 290.770 734.008, 290.267 727.643 C 288.931 710.727, 299.485 698, 314.848 698 C 322.670 698, 326.966 699.777, 330.572 704.506 L 333.408 708.224 346.156 707.827 C 353.167 707.608, 359.149 707.184, 359.449 706.885 C 359.748 706.585, 358.687 703.676, 357.090 700.420 C 353.079 692.243, 345.098 684.839, 335.528 680.417 C 328.592 677.213, 326.726 676.803, 317.154 676.379 C 307.605 675.956, 305.750 676.171, 299.266 678.444 M 135.667 677.667 C 135.300 678.033, 135 699.633, 135 725.667 L 135 773 155.986 773 C 178.112 773, 182.164 772.463, 192.950 768.106 C 200.941 764.877, 212.006 754.894, 215.723 747.560 C 220.683 737.772, 222.252 723.905, 219.566 713.592 C 217.021 703.821, 214.152 698.735, 207.571 692.329 C 198.300 683.305, 190.598 679.883, 175.500 678.080 C 165.632 676.902, 136.731 676.602, 135.667 677.667 M 452.314 677.768 C 451.431 678.342, 451.094 689.930, 450.997 723.020 C 450.925 747.484, 450.897 768.752, 450.933 770.283 L 451 773.066 462.250 772.783 L 473.500 772.500 473.768 748.750 C 473.930 734.402, 474.417 725, 474.998 725 C 476.197 725, 479.023 730.488, 483.063 740.662 C 484.774 744.973, 486.520 748.950, 486.942 749.500 C 487.364 750.050, 488.323 752.638, 489.073 755.250 C 489.823 757.862, 490.717 760, 491.060 760 C 491.403 760, 492.244 761.913, 492.928 764.250 C 495.366 772.575, 495.980 773, 505.554 773 C 512.756 773, 514.157 772.731, 514.679 771.250 C 515.018 770.288, 516.070 767.700, 517.018 765.500 C 517.965 763.300, 519.970 758.350, 521.472 754.500 C 522.974 750.650, 524.608 747.072, 525.102 746.550 C 525.596 746.027, 526 745.010, 526 744.289 C 526 743.568, 526.863 741.071, 527.917 738.739 C 528.971 736.408, 530.746 732.362, 531.861 729.750 C 532.975 727.138, 534.363 725, 534.944 725 C 536.110 725, 536.250 727.840, 536.399 754.500 L 536.500 772.500 546.913 772.787 C 552.640 772.945, 557.721 772.679, 558.204 772.196 C 559.252 771.148, 559.639 679.844, 558.602 678.165 C 558.117 677.381, 553.870 677, 545.598 677 L 533.315 677 531.690 680.250 C 530.796 682.038, 527.838 688.900, 525.117 695.500 C 522.396 702.100, 517.165 714.700, 513.492 723.500 C 509.819 732.300, 506.562 740.117, 506.253 740.872 C 505.836 741.893, 505.227 741.638, 503.868 739.872 C 502.865 738.567, 502.034 736.931, 502.022 736.236 C 502.010 735.541, 501.588 734.191, 501.084 733.236 C 499.640 730.499, 491.440 710.890, 488.440 703 C 487.708 701.075, 484.929 694.550, 482.265 688.500 L 477.421 677.500 465.460 677.249 C 458.882 677.110, 452.966 677.344, 452.314 677.768 M 618.458 678.250 C 618.194 678.938, 618.096 700.425, 618.239 726 L 618.500 772.500 629.500 772.500 L 640.500 772.500 641.199 766 C 641.583 762.425, 641.667 750.725, 641.385 740 C 640.886 720.975, 641.416 715.344, 643.570 716.791 C 644.152 717.181, 648.023 722.675, 652.174 729 C 670.713 757.247, 678.650 769.625, 679.270 771.250 C 679.854 772.783, 681.431 773, 691.978 773 L 704.019 773 703.760 725.250 L 703.500 677.500 692.500 677.500 L 681.500 677.500 681.234 705.750 C 681.088 721.288, 680.719 734, 680.413 734 C 679.232 734, 669 720.928, 669 719.420 C 669 719.054, 666.975 715.916, 664.500 712.448 C 662.025 708.979, 660 705.660, 660 705.071 C 660 704.482, 659.602 704, 659.117 704 C 658.631 704, 657.969 703.212, 657.646 702.250 C 656.985 700.284, 655.088 697.229, 653.326 695.297 C 652.680 694.589, 650.753 691.564, 649.043 688.575 C 647.333 685.586, 644.643 681.759, 643.066 680.070 C 640.212 677.016, 640.143 677, 629.567 677 C 621.985 677, 618.800 677.358, 618.458 678.250 M 159.234 695.762 C 158.252 696.441, 158.028 703.119, 158.234 725.569 L 158.500 754.500 166.238 754.792 C 175.529 755.142, 180.088 754.039, 186.268 749.946 C 198.043 742.147, 200.764 718.615, 191.386 705.692 C 186.463 698.908, 179.844 695.836, 169.008 695.304 C 164.329 695.074, 159.930 695.280, 159.234 695.762 M 232.758 698.385 C 231.626 699.517, 231.384 706.422, 231.436 736.135 L 231.500 772.500 243 772.500 L 254.500 772.500 254.818 736.811 C 255.038 712.134, 254.796 700.486, 254.033 699.061 C 253.039 697.204, 251.999 697, 243.536 697 C 236.866 697, 233.741 697.402, 232.758 698.385 M 374.232 698.168 C 373.300 699.100, 373 708.380, 373 736.233 L 373 773.066 384.250 772.783 L 395.500 772.500 395.500 735 L 395.500 697.500 385.482 697.218 C 378.544 697.022, 375.086 697.314, 374.232 698.168 M 579.200 698.200 C 578.310 699.090, 578 708.911, 578 736.200 L 578 773 589.500 773 L 601 773 601.118 766.750 C 601.706 735.520, 601.596 701.080, 600.902 699.250 C 600.098 697.127, 599.494 697, 590.225 697 C 583.917 697, 579.970 697.430, 579.200 698.200 M 750.423 717.967 C 743.045 720.953, 738.537 731.704, 740.990 740.465 C 743.041 747.789, 750.540 754, 757.332 754 C 761.130 754, 767.631 749.880, 770.281 745.792 C 772.525 742.333, 773 740.473, 773 735.155 C 773 724.077, 766.554 716.915, 756.716 717.063 C 754.397 717.098, 751.565 717.505, 750.423 717.967" stroke="none" fill="#3c9cc9" fill-rule="evenodd"/><path d="M 0 466.001 L 0 932.002 473.250 931.751 L 946.500 931.500 946.751 465.750 L 947.002 0 473.501 0 L 0 0 0 466.001 M 0.496 466.500 C 0.496 722.800, 0.610 827.799, 0.750 699.832 C 0.890 571.864, 0.890 362.164, 0.750 233.832 C 0.610 105.499, 0.496 210.200, 0.496 466.500 M 407.691 186.177 C 407.157 188.381, 406.222 199.880, 404.007 231.500 C 400.424 282.650, 399.825 293.169, 400.375 295.360 C 401.004 297.866, 407.558 301.440, 433.949 313.670 C 442.295 317.538, 451.069 321.869, 456.758 324.931 C 457.716 325.446, 463.900 328.425, 470.500 331.550 C 491.488 341.487, 507.384 349.357, 511.230 351.714 C 513.282 352.971, 515.644 354, 516.480 354 C 517.316 354, 518 354.398, 518 354.883 C 518 355.369, 518.993 356.026, 520.206 356.344 C 521.420 356.661, 522.094 357.239, 521.705 357.629 C 521.316 358.018, 519.760 357.763, 518.248 357.063 C 512.202 354.261, 509.325 353.088, 505.500 351.863 C 503.300 351.159, 501.050 350.280, 500.500 349.909 C 499.950 349.539, 493.724 346.917, 486.664 344.082 C 479.604 341.248, 471.954 338.066, 469.664 337.011 C 467.374 335.956, 463.025 334.137, 460 332.969 C 456.975 331.800, 453.150 330.232, 451.500 329.484 C 449.850 328.737, 445.575 326.949, 442 325.512 C 438.425 324.074, 434.150 322.281, 432.500 321.526 C 424.369 317.806, 417.950 315.061, 412.500 312.972 C 409.200 311.708, 406.050 310.359, 405.500 309.974 C 404.950 309.590, 403.309 308.992, 401.854 308.645 C 400.399 308.298, 395.899 306.512, 391.854 304.676 C 387.809 302.841, 383.150 300.756, 381.500 300.045 C 374.562 297.052, 351.872 287.540, 344 284.323 C 339.325 282.413, 334.150 280.278, 332.500 279.578 C 330.850 278.879, 322.750 275.464, 314.500 271.991 C 306.250 268.518, 299.072 265.299, 298.550 264.838 C 298.027 264.377, 297.028 264, 296.330 264 C 295.631 264, 292.458 262.849, 289.280 261.443 C 286.101 260.037, 282.600 258.518, 281.500 258.068 C 275.900 255.776, 273.865 255, 273.453 255 C 272.216 255, 273.323 257.550, 276.250 261.445 C 278.038 263.824, 280.175 266.793, 281 268.043 C 281.825 269.293, 283.661 271.707, 285.079 273.408 C 286.497 275.109, 291.221 281.225, 295.577 287 C 299.932 292.775, 304.249 298.400, 305.171 299.500 C 306.092 300.600, 308.654 303.975, 310.863 307 C 313.072 310.025, 315.495 313.175, 316.247 314 C 316.999 314.825, 319.364 317.975, 321.503 321 C 323.642 324.025, 326.901 328.300, 328.746 330.500 C 330.591 332.700, 332.417 334.950, 332.804 335.500 C 341.404 347.724, 350 358.081, 352.216 358.886 C 353.710 359.428, 358.210 360.139, 362.216 360.465 C 366.222 360.791, 372.650 361.471, 376.500 361.976 C 380.350 362.481, 389.350 363.391, 396.500 363.998 C 403.650 364.605, 413.227 365.548, 417.783 366.093 C 422.339 366.638, 430.889 367.525, 436.783 368.065 C 456.286 369.852, 466.356 370.915, 479.500 372.575 C 486.650 373.479, 495.612 374.433, 499.416 374.697 C 503.219 374.961, 505.784 375.515, 505.116 375.929 C 504.447 376.342, 485.513 376.503, 463.042 376.287 C 440.432 376.070, 421.943 376.283, 421.645 376.765 C 420.895 377.979, 424.973 382.042, 460 414.965 C 467.146 421.682, 468.403 422.319, 472.201 421.144 C 474.015 420.583, 479.349 418.921, 484.053 417.450 C 495.889 413.752, 498.597 414.629, 488.488 418.887 C 484.094 420.738, 479.150 422.824, 477.500 423.522 C 475.850 424.220, 472.025 425.793, 469 427.017 C 465.975 428.240, 461.700 430.021, 459.500 430.973 C 457.300 431.926, 452.411 433.784, 448.635 435.103 C 444.859 436.421, 441.535 438.095, 441.250 438.823 C 440.749 440.097, 444.023 463.203, 446.163 473.500 C 446.735 476.250, 447.610 481.650, 448.109 485.500 C 449.676 497.610, 450.857 505.301, 452.099 511.500 C 452.911 515.549, 453.426 534.555, 453.685 569.939 C 453.934 603.945, 454.431 622.815, 455.101 623.621 C 456.143 624.877, 460.679 623.821, 465.618 621.173 C 468.411 619.675, 476.890 616, 477.553 616 C 477.869 616, 480.462 614.935, 483.314 613.633 C 486.166 612.332, 490.750 610.259, 493.500 609.028 C 496.250 607.796, 499.964 606.110, 501.752 605.279 C 504.982 603.780, 505.132 603.832, 523.252 612.754 C 533.289 617.695, 542.513 622.052, 543.750 622.436 C 547.264 623.527, 546.909 621.534, 541.448 609.500 C 540.200 606.750, 537.293 600, 534.989 594.500 C 532.685 589, 530.228 583.150, 529.531 581.500 C 528.833 579.850, 525.905 572.875, 523.023 566 C 520.140 559.125, 516.207 549.900, 514.282 545.500 C 512.356 541.100, 510.215 536.150, 509.524 534.500 C 506.504 527.296, 501.724 516.358, 500.899 514.764 C 500.404 513.809, 500 512.604, 500 512.087 C 500 511.569, 498.425 507.736, 496.500 503.569 C 494.575 499.401, 493 495.599, 493 495.118 C 493 494.638, 492.434 493.775, 491.742 493.201 C 490.809 492.426, 488.874 493.666, 484.242 498.006 C 475.496 506.200, 476.186 503.067, 485.739 491.211 C 488.082 488.302, 490 485.598, 490 485.201 C 490 484.804, 491.030 483.359, 492.290 481.990 C 493.549 480.620, 497.396 475.745, 500.839 471.155 C 504.282 466.565, 507.520 462.290, 508.034 461.655 C 511.686 457.147, 514.463 453.548, 519.342 447 C 522.416 442.875, 526.407 437.739, 528.211 435.586 C 530.016 433.433, 534.331 427.863, 537.802 423.209 C 541.272 418.554, 544.649 414.178, 545.306 413.484 C 545.962 412.790, 547.400 410.963, 548.500 409.425 C 549.600 407.887, 551.413 405.474, 552.528 404.064 C 553.643 402.654, 555.789 399.664, 557.297 397.419 C 558.804 395.174, 561.267 392.179, 562.769 390.763 C 565.662 388.036, 572.392 384, 574.047 384 C 574.589 384, 581.543 380.850, 589.500 377 C 597.457 373.150, 604.257 370, 604.611 370 C 604.965 370, 609.806 367.688, 615.368 364.862 C 626.863 359.021, 629.648 358.700, 645.588 361.381 C 650.490 362.205, 660.575 363.385, 668 364.003 C 675.425 364.620, 684.237 365.547, 687.582 366.063 C 694.085 367.065, 699.538 367.209, 697 366.312 C 696.175 366.020, 692.686 364.481, 689.247 362.891 C 685.808 361.301, 682.540 360, 681.984 360 C 681.428 360, 680.191 359.592, 679.236 359.092 C 678.281 358.593, 675.250 357.487, 672.500 356.635 C 665.138 354.353, 647.769 348.068, 645.764 346.960 C 644.809 346.432, 643.211 346, 642.214 346 C 641.216 346, 639.972 345.611, 639.450 345.136 C 638.927 344.661, 635.639 343.436, 632.141 342.414 C 626.400 340.737, 625.182 339.874, 619.596 333.528 C 616.193 329.663, 611.411 324.025, 608.968 321 C 603.093 313.723, 603.253 313.814, 597.500 314.505 C 594.750 314.835, 588 315.526, 582.500 316.041 C 577 316.556, 568.225 317.471, 563 318.076 C 557.775 318.680, 549.905 319.472, 545.510 319.837 C 539.185 320.362, 537.454 320.847, 537.203 322.164 C 537.029 323.080, 538.530 327.580, 540.539 332.164 C 542.548 336.749, 545.235 342.975, 546.510 346 C 547.785 349.025, 550.016 354.150, 551.467 357.389 C 554.068 363.194, 555.715 369, 554.761 369 C 554.492 369, 552.977 367.087, 551.394 364.750 C 549.812 362.413, 547.769 359.810, 546.854 358.966 C 545.940 358.122, 542.336 353.688, 538.846 349.113 C 528.845 336.002, 527.371 334.153, 523.573 329.949 C 521.608 327.774, 520 325.631, 520 325.187 C 520 324.743, 518.746 323.057, 517.213 321.440 C 515.679 319.823, 511.978 315.350, 508.986 311.500 C 505.995 307.650, 503.312 304.275, 503.024 304 C 502.736 303.725, 499.586 299.675, 496.025 295 C 490.107 287.232, 483.324 278.591, 479.144 273.497 C 478.240 272.395, 475.947 269.470, 474.050 266.997 C 472.152 264.524, 467.202 258.262, 463.050 253.083 C 458.897 247.903, 452.800 240.185, 449.500 235.932 C 446.200 231.678, 442.150 226.466, 440.500 224.349 C 434.547 216.713, 428.923 209.480, 428.176 208.500 C 426.742 206.617, 409.742 185.501, 408.997 184.677 C 408.588 184.224, 408 184.899, 407.691 186.177 M 229.684 358.649 C 228.573 359.760, 228.871 399.802, 229.996 400.497 C 231.865 401.653, 274.993 401.725, 276.565 400.576 C 277.802 399.672, 277.999 396.149, 277.771 378.998 L 277.500 358.500 253.934 358.232 C 240.973 358.085, 230.061 358.273, 229.684 358.649 M 311.681 372.652 C 311.307 373.027, 311 384.685, 311 398.560 C 311 420.640, 311.197 423.862, 312.582 424.393 C 314.961 425.306, 368.305 425.093, 369.768 424.165 C 370.748 423.542, 370.975 417.608, 370.768 397.930 L 370.500 372.500 341.431 372.235 C 325.444 372.090, 312.056 372.277, 311.681 372.652 M 383.657 417.172 C 382.782 417.662, 382.510 422.478, 382.657 434.904 C 382.769 444.287, 383.143 452.422, 383.489 452.982 C 383.882 453.617, 391.572 454, 403.952 454 C 421.116 454, 423.868 453.787, 424.393 452.418 C 425.474 449.600, 425.079 418.167, 423.953 417.471 C 422.543 416.599, 385.177 416.322, 383.657 417.172 M 272.414 420.140 C 271.182 422.132, 271.985 444.368, 273.319 445.232 C 275.433 446.602, 299.777 445.974, 300.985 444.519 C 301.663 443.701, 301.960 438.800, 301.783 431.358 L 301.500 419.500 287.326 419.223 C 277.162 419.024, 272.943 419.284, 272.414 420.140 M 316.070 444.415 C 314.698 446.068, 314.944 492.283, 316.333 493.669 C 317.350 494.684, 368.795 494.789, 371.250 493.781 C 372.849 493.125, 373 490.959, 373 468.638 C 373 447.289, 372.801 444.138, 371.418 443.607 C 370.548 443.273, 358.003 443, 343.541 443 C 322.088 443, 317.029 443.261, 316.070 444.415 M 252.353 468.047 C 251.409 468.991, 251.434 502.768, 252.379 503.713 C 253.129 504.462, 291.933 504.401, 292.687 503.649 C 293.134 503.203, 293.642 495.512, 293.816 486.556 C 294.087 472.534, 293.904 470.047, 292.494 468.637 C 291.095 467.238, 288.139 467, 272.129 467 C 260.410 467, 253.008 467.392, 252.353 468.047 M 388.694 478.640 C 388.312 479.021, 388 484.418, 388 490.631 C 388 500.778, 388.197 502.035, 389.934 502.965 C 392.991 504.601, 414.503 504.304, 415.911 502.607 C 416.677 501.685, 416.972 497.374, 416.784 489.857 L 416.500 478.500 402.944 478.223 C 395.488 478.071, 389.075 478.258, 388.694 478.640 M 286.447 516.277 C 286.178 516.979, 286.079 526.763, 286.229 538.018 L 286.500 558.482 289.402 558.991 C 290.999 559.271, 302.249 559.275, 314.402 559 L 336.500 558.500 336.784 539 C 336.940 528.275, 336.819 518.487, 336.515 517.250 L 335.962 515 311.450 515 C 292.486 515, 286.826 515.289, 286.447 516.277 M 248.500 531.882 L 244.500 532.500 243.876 538 C 243.168 544.245, 243.840 551.783, 245.177 552.610 C 246.609 553.494, 266.311 553.089, 267.244 552.156 C 268.185 551.215, 268.820 533.487, 267.945 532.611 C 267.065 531.732, 252.911 531.201, 248.500 531.882 M 236.190 667.026 C 231.965 669.602, 229.632 675.038, 230.280 680.796 C 231.316 689.983, 240.407 694.402, 249.356 690.070 C 254.856 687.407, 256.528 683.738, 256.111 675.249 C 256.050 674.011, 254.146 671.198, 251.879 668.999 C 248.420 665.642, 247.096 665.001, 243.629 665.004 C 241.254 665.006, 238.094 665.865, 236.190 667.026 M 376.017 668.763 C 372.099 672.240, 371.770 672.918, 371.698 677.675 C 371.553 687.308, 378.517 693.245, 387.909 691.493 C 391.603 690.804, 393.239 689.490, 396.258 684.785 C 401.585 676.483, 394.312 665, 383.727 665 C 381.133 665, 379.187 665.950, 376.017 668.763 M 581.864 668.273 C 576.992 671.989, 575.511 676.240, 577.048 682.093 C 579.386 690.989, 587.569 694.323, 596.480 690.010 C 608.176 684.348, 603.036 665.030, 589.828 665.007 C 587.213 665.002, 584.919 665.943, 581.864 668.273 M 773.573 672.882 C 773.252 673.402, 773.062 680.396, 773.152 688.423 C 773.241 696.451, 773.033 703.300, 772.688 703.645 C 772.344 703.989, 770.811 703.430, 769.281 702.403 C 762.823 698.065, 753.321 695.307, 748.370 696.332 C 746.791 696.659, 743.925 697.228, 742 697.597 C 740.075 697.966, 737.306 699.108, 735.846 700.134 C 734.386 701.160, 732.856 702, 732.447 702 C 731.288 702, 725.578 708.170, 722.671 712.563 C 714.457 724.974, 714.948 746.659, 723.728 759.329 C 734.214 774.461, 753.747 778.566, 766.914 768.406 C 769.342 766.533, 771.677 765, 772.104 765 C 772.530 765, 773.019 766.688, 773.190 768.750 L 773.500 772.500 785 772.500 L 796.500 772.500 796.500 722.500 L 796.500 672.500 785.329 672.218 C 779.054 672.060, 773.901 672.350, 773.573 672.882 M 299.266 678.444 C 286.370 682.965, 276.970 691.139, 271.428 702.649 C 257.802 730.953, 270.457 761.552, 300 771.730 C 302.990 772.760, 308.192 773.284, 315.500 773.291 C 325.477 773.301, 327.058 773.041, 332.500 770.494 C 345.630 764.348, 356.886 752.426, 359.661 741.725 C 360.398 738.886, 361 733.078, 361 728.817 C 361 722.448, 360.689 720.911, 359.250 720.172 C 357.380 719.213, 316.387 718.760, 311.711 719.647 L 308.922 720.176 309.211 728.338 L 309.500 736.500 321.500 737 C 333.005 737.479, 333.513 737.593, 333.819 739.748 C 334.261 742.860, 330.587 747.660, 325.956 750.023 C 318.093 754.034, 303.159 751.738, 297.580 745.659 C 293.849 741.594, 290.770 734.008, 290.267 727.643 C 288.931 710.727, 299.485 698, 314.848 698 C 322.670 698, 326.966 699.777, 330.572 704.506 L 333.408 708.224 346.156 707.827 C 353.167 707.608, 359.149 707.184, 359.449 706.885 C 359.748 706.585, 358.687 703.676, 357.090 700.420 C 353.079 692.243, 345.098 684.839, 335.528 680.417 C 328.592 677.213, 326.726 676.803, 317.154 676.379 C 307.605 675.956, 305.750 676.171, 299.266 678.444 M 135.667 677.667 C 135.300 678.033, 135 699.633, 135 725.667 L 135 773 155.986 773 C 178.112 773, 182.164 772.463, 192.950 768.106 C 200.941 764.877, 212.006 754.894, 215.723 747.560 C 220.683 737.772, 222.252 723.905, 219.566 713.592 C 217.021 703.821, 214.152 698.735, 207.571 692.329 C 198.300 683.305, 190.598 679.883, 175.500 678.080 C 165.632 676.902, 136.731 676.602, 135.667 677.667 M 452.314 677.768 C 451.431 678.342, 451.094 689.930, 450.997 723.020 C 450.925 747.484, 450.897 768.752, 450.933 770.283 L 451 773.066 462.250 772.783 L 473.500 772.500 473.768 748.750 C 473.930 734.402, 474.417 725, 474.998 725 C 476.197 725, 479.023 730.488, 483.063 740.662 C 484.774 744.973, 486.520 748.950, 486.942 749.500 C 487.364 750.050, 488.323 752.638, 489.073 755.250 C 489.823 757.862, 490.717 760, 491.060 760 C 491.403 760, 492.244 761.913, 492.928 764.250 C 495.366 772.575, 495.980 773, 505.554 773 C 512.756 773, 514.157 772.731, 514.679 771.250 C 515.018 770.288, 516.070 767.700, 517.018 765.500 C 517.965 763.300, 519.970 758.350, 521.472 754.500 C 522.974 750.650, 524.608 747.072, 525.102 746.550 C 525.596 746.027, 526 745.010, 526 744.289 C 526 743.568, 526.863 741.071, 527.917 738.739 C 528.971 736.408, 530.746 732.362, 531.861 729.750 C 532.975 727.138, 534.363 725, 534.944 725 C 536.110 725, 536.250 727.840, 536.399 754.500 L 536.500 772.500 546.913 772.787 C 552.640 772.945, 557.721 772.679, 558.204 772.196 C 559.252 771.148, 559.639 679.844, 558.602 678.165 C 558.117 677.381, 553.870 677, 545.598 677 L 533.315 677 531.690 680.250 C 530.796 682.038, 527.838 688.900, 525.117 695.500 C 522.396 702.100, 517.165 714.700, 513.492 723.500 C 509.819 732.300, 506.562 740.117, 506.253 740.872 C 505.836 741.893, 505.227 741.638, 503.868 739.872 C 502.865 738.567, 502.034 736.931, 502.022 736.236 C 502.010 735.541, 501.588 734.191, 501.084 733.236 C 499.640 730.499, 491.440 710.890, 488.440 703 C 487.708 701.075, 484.929 694.550, 482.265 688.500 L 477.421 677.500 465.460 677.249 C 458.882 677.110, 452.966 677.344, 452.314 677.768 M 618.458 678.250 C 618.194 678.938, 618.096 700.425, 618.239 726 L 618.500 772.500 629.500 772.500 L 640.500 772.500 641.199 766 C 641.583 762.425, 641.667 750.725, 641.385 740 C 640.886 720.975, 641.416 715.344, 643.570 716.791 C 644.152 717.181, 648.023 722.675, 652.174 729 C 670.713 757.247, 678.650 769.625, 679.270 771.250 C 679.854 772.783, 681.431 773, 691.978 773 L 704.019 773 703.760 725.250 L 703.500 677.500 692.500 677.500 L 681.500 677.500 681.234 705.750 C 681.088 721.288, 680.719 734, 680.413 734 C 679.232 734, 669 720.928, 669 719.420 C 669 719.054, 666.975 715.916, 664.500 712.448 C 662.025 708.979, 660 705.660, 660 705.071 C 660 704.482, 659.602 704, 659.117 704 C 658.631 704, 657.969 703.212, 657.646 702.250 C 656.985 700.284, 655.088 697.229, 653.326 695.297 C 652.680 694.589, 650.753 691.564, 649.043 688.575 C 647.333 685.586, 644.643 681.759, 643.066 680.070 C 640.212 677.016, 640.143 677, 629.567 677 C 621.985 677, 618.800 677.358, 618.458 678.250 M 159.234 695.762 C 158.252 696.441, 158.028 703.119, 158.234 725.569 L 158.500 754.500 166.238 754.792 C 175.529 755.142, 180.088 754.039, 186.268 749.946 C 198.043 742.147, 200.764 718.615, 191.386 705.692 C 186.463 698.908, 179.844 695.836, 169.008 695.304 C 164.329 695.074, 159.930 695.280, 159.234 695.762 M 232.758 698.385 C 231.626 699.517, 231.384 706.422, 231.436 736.135 L 231.500 772.500 243 772.500 L 254.500 772.500 254.818 736.811 C 255.038 712.134, 254.796 700.486, 254.033 699.061 C 253.039 697.204, 251.999 697, 243.536 697 C 236.866 697, 233.741 697.402, 232.758 698.385 M 374.232 698.168 C 373.300 699.100, 373 708.380, 373 736.233 L 373 773.066 384.250 772.783 L 395.500 772.500 395.500 735 L 395.500 697.500 385.482 697.218 C 378.544 697.022, 375.086 697.314, 374.232 698.168 M 579.200 698.200 C 578.310 699.090, 578 708.911, 578 736.200 L 578 773 589.500 773 L 601 773 601.118 766.750 C 601.706 735.520, 601.596 701.080, 600.902 699.250 C 600.098 697.127, 599.494 697, 590.225 697 C 583.917 697, 579.970 697.430, 579.200 698.200 M 750.423 717.967 C 743.045 720.953, 738.537 731.704, 740.990 740.465 C 743.041 747.789, 750.540 754, 757.332 754 C 761.130 754, 767.631 749.880, 770.281 745.792 C 772.525 742.333, 773 740.473, 773 735.155 C 773 724.077, 766.554 716.915, 756.716 717.063 C 754.397 717.098, 751.565 717.505, 750.423 717.967" stroke="none" fill="#040d15" fill-rule="evenodd"/></svg>